<svg id="Layer_1" data-name="Layer 1" xmlns="http://www.w3.org/2000/svg" xmlns:xlink="http://www.w3.org/1999/xlink" width="209.4mm" height="209.4mm" viewBox="0 0 593.57 593.57"><defs><style>.cls-1{fill:#0e2023;}.cls-2{fill:#f0a500;}.cls-3{fill:url(#linear-gradient);}.cls-4{fill:url(#linear-gradient-2);}.cls-5{fill:url(#linear-gradient-3);}.cls-6{fill:url(#linear-gradient-4);}.cls-7{fill:#db2a2a;}</style><linearGradient id="linear-gradient" x1="441.65" y1="1377.87" x2="385.55" y2="1291.11" gradientTransform="translate(0 -857.13)" gradientUnits="userSpaceOnUse"><stop offset="0" stop-opacity="0.4"/><stop offset="1" stop-opacity="0"/></linearGradient><linearGradient id="linear-gradient-2" x1="311.13" y1="248.49" x2="268.71" y2="319.06" gradientTransform="matrix(1, 0, 0, -1, 0, 593.89)" xlink:href="#linear-gradient"/><linearGradient id="linear-gradient-3" x1="340.22" y1="301.78" x2="382.25" y2="233.15" gradientTransform="matrix(1, 0, 0, -1, 0, 593.89)" xlink:href="#linear-gradient"/><linearGradient id="linear-gradient-4" x1="441.63" y1="478.23" x2="385.53" y2="391.47" gradientTransform="matrix(1, 0, 0, -1, 0, 593.89)" xlink:href="#linear-gradient"/></defs><rect class="cls-1" width="593.57" height="593.57"/><path class="cls-2" d="M456.2,400.93h0a1.58,1.58,0,0,0-.09-.36c-.27-1.07-.57-2.12-.87-3.19s-.6-2.09-.93-3.14q-.37-1.22-.78-2.43c-.67-2.11-1.42-4.2-2.27-6.27-.23-.6-.47-1.21-.71-1.8s-.54-1.33-.83-2c-.09-.24-.2-.48-.31-.73-.28-.63-.55-1.28-.85-1.91-.47-1.07-1-2.15-1.48-3.2s-.89-1.8-1.34-2.69l-.06-.11q-1.44-2.84-3-5.58c-.19-.34-.38-.68-.58-1l-1.36-2.26c-.44-.7-.88-1.41-1.33-2.11l-.08-.12c-.56-.9-1.16-1.79-1.77-2.69s-1.2-1.76-1.82-2.63-1.09-1.52-1.64-2.26l-.25-.33c-.56-.75-1.13-1.5-1.7-2.24l-.43-.54-1.82-2.25c-.69-.83-1.38-1.65-2.07-2.44-1.39-1.62-2.83-3.2-4.3-4.74a.27.27,0,0,0-.07-.08c-.71-.75-1.44-1.49-2.17-2.22q-2.27-2.26-4.63-4.41c-.61-.55-1.23-1.11-1.85-1.65-.36-.32-.73-.64-1.09-.94s-.89-.77-1.35-1.15l-1.62-1.32c-.54-.43-.88-.72-1.33-1.07l-.09-.06c-.94-.75-1.89-1.48-2.86-2.19s-2-1.46-3-2.15l-1-.71c-.9-.62-1.81-1.23-2.73-1.82l-.06-.06c-1.15-.75-2.32-1.48-3.5-2.2l-5.49-3.18-.8-.46-.47-.27-1-.55c-1.63-.95-3.82-2.22-6.5-3.76l-2-1.17-1.08-.62-2.26-1.31-3.68-2.12-2.61-1.51-2.74-1.58-28.09-16.21-3.12-1.81L310,270.1,207.42,210.91a13,13,0,0,1-6.51-11.27V184.09L135,146v80.15a33,33,0,0,0,15.87,28.2l50.07,28.92L246.4,309.5l3.26,1.89,2.51,1.46,6.55,3.77.63.36c.18.11.34.19.47.28l.77.44h.07l.41.23h0l100.4,58,.47.28.1.06a67.31,67.31,0,0,1,32.33,57.56c0,1.24,0,2.45-.09,3.67,0,1-.14,2-.23,3.05a1.57,1.57,0,0,1-.07.57l-.12,1c-.12,1-.26,1.94-.42,2.89-.08.53-.17,1-.28,1.56s-.19,1-.31,1.54-.18.83-.28,1.23-.13.53-.19.8c-.12.48-.25,1-.38,1.45-.46,1.66-1,3.3-1.54,4.89-.15.45-.31.88-.49,1.31s-.43,1.13-.67,1.69-.34.85-.53,1.25-.24.57-.37.85-.37.8-.56,1.19c-.58,1.23-1.21,2.44-1.87,3.64-.5.92-1,1.83-1.6,2.72a63,63,0,0,1-4.59,6.54l-.95,1.18c-.33.39-.65.78-1,1.16l.32-.34c-.22.24-.44.5-.65.74l-.68.73c-.33.39-.7.77-1.06,1.15s-.75.79-1.14,1.16a48.14,48.14,0,0,1-3.55,3.3c-1.21,1.07-2.48,2.1-3.78,3.05-.86.67-1.74,1.29-2.64,1.88s-1.84,1.22-2.78,1.77c-1.38.85-2.79,1.63-4.23,2.37-.48.26-1,.5-1.45.72s-1,.49-1.51.71l-1.48.64a61.94,61.94,0,0,1-6.19,2.27l-1.23.37c-.69.22-1.39.41-2.08.58-.5.13-1,.25-1.51.36-1.08.25-2.18.48-3.29.67-.55.11-1.11.19-1.67.27-1.14.19-2.29.32-3.45.45-1.68.16-3.38.27-5.1.31h2l2.9-.11h.58c1,0,2-.11,3.06-.19s2.21-.17,3.32-.3h.1c.89-.09,1.78-.2,2.66-.31l1-.12c1-.13,2-.27,2.92-.42s2.21-.35,3.3-.54h.11c1.05-.2,2.11-.4,3.16-.62l3.24-.7c1.08-.24,2-.47,3-.73a4.42,4.42,0,0,0,.52-.14c.85-.21,1.71-.44,2.56-.7,1.26-.33,2.5-.7,3.74-1.1.69-.21,1.38-.44,2.06-.67q5.2-1.71,10.22-3.85c.91-.38,1.78-.77,2.67-1.18s2-.9,2.93-1.36c2-.95,3.86-1.92,5.75-2.94,2.13-1.15,4.21-2.37,6.26-3.63.69-.42,1.38-.86,2-1.29.9-.58,1.8-1.17,2.68-1.76.67-.45,1.33-.91,2-1.38.5-.34,1-.69,1.5-1.07s1.26-.9,1.88-1.37c.81-.61,1.6-1.23,2.4-1.85s1.67-1.33,2.5-2a.47.47,0,0,0,.15-.13.86.86,0,0,0,.14-.13A133.28,133.28,0,0,0,456.2,400.93Z" transform="translate(-0.86 -0.07)"/><path class="cls-3" d="M456.2,400.93h0a1.58,1.58,0,0,0-.09-.36c-.27-1.07-.57-2.12-.87-3.19s-.6-2.09-.93-3.14q-.37-1.22-.78-2.43c-.67-2.11-1.42-4.2-2.27-6.27-.23-.6-.47-1.21-.71-1.8s-.54-1.33-.83-2c-.09-.24-.2-.48-.31-.73-.28-.63-.55-1.28-.85-1.91-.47-1.07-1-2.15-1.48-3.2s-.89-1.8-1.34-2.69l-.06-.11q-1.44-2.84-3-5.58c-.19-.34-.38-.68-.58-1l-1.36-2.26c-.44-.7-.88-1.41-1.33-2.11l-.08-.12c-.56-.9-1.16-1.79-1.77-2.69s-1.2-1.76-1.82-2.63-1.09-1.52-1.64-2.26l-.25-.33c-.56-.75-1.13-1.5-1.7-2.24l-.43-.54-1.82-2.25c-.69-.83-1.38-1.65-2.07-2.44-1.39-1.62-2.83-3.2-4.3-4.74a.27.27,0,0,0-.07-.08c-.71-.75-1.44-1.49-2.17-2.22q-2.27-2.26-4.63-4.41c-.61-.55-1.23-1.11-1.85-1.65-.36-.32-.73-.64-1.09-.94s-.89-.77-1.35-1.15l-1.62-1.32c-.54-.43-.88-.72-1.33-1.07l-.09-.06c-.94-.75-1.89-1.48-2.86-2.19s-2-1.46-3-2.15l-1-.71c-.9-.62-1.81-1.23-2.73-1.82l-.06-.06c-1.15-.75-2.32-1.48-3.5-2.2l-2.7-1.56-48.6,48.08,16.63,9.6.47.28.1.06a67.31,67.31,0,0,1,32.33,57.56c0,1.24,0,2.45-.09,3.67,0,1-.14,2-.23,3.05a1.57,1.57,0,0,1-.07.57l-.12,1c-.12,1-.26,1.94-.42,2.89-.08.53-.17,1-.28,1.56s-.19,1-.31,1.54-.18.83-.28,1.23-.13.53-.19.8c-.12.48-.25,1-.38,1.45-.46,1.66-1,3.3-1.54,4.89-.15.45-.31.88-.49,1.31s-.43,1.13-.67,1.69-.34.85-.53,1.25-.24.57-.37.85-.37.8-.56,1.19c-.58,1.23-1.21,2.44-1.87,3.64-.5.92-1,1.83-1.6,2.72a63,63,0,0,1-4.59,6.54l-.95,1.18c-.33.39-.65.78-1,1.16l.32-.34c-.22.24-.44.5-.65.74l-.68.73c-.33.39-.7.77-1.06,1.15s-.75.79-1.14,1.16a48.14,48.14,0,0,1-3.55,3.3c-1.21,1.07-2.48,2.1-3.78,3.05-.86.67-1.74,1.29-2.64,1.88s-1.84,1.22-2.78,1.77c-1.38.85-2.79,1.63-4.23,2.37-.48.26-1,.5-1.45.72s-1,.49-1.51.71l-1.48.64a61.94,61.94,0,0,1-6.19,2.27l-1.23.37c-.69.22-1.39.41-2.08.58-.5.13-1,.25-1.51.36-1.08.25-2.18.48-3.29.67-.55.11-1.11.19-1.67.27-1.14.19-2.29.32-3.45.45-1.68.16-3.38.27-5.1.31h2l2.9-.11h.58c1,0,2-.11,3.06-.19s2.21-.17,3.32-.3h.1c.89-.09,1.78-.2,2.66-.31l1-.12c1-.13,2-.27,2.92-.42s2.21-.35,3.3-.54h.11c1.05-.2,2.11-.4,3.16-.62l3.24-.7c1.08-.24,2-.47,3-.73a4.42,4.42,0,0,0,.52-.14c.85-.21,1.71-.44,2.56-.7,1.26-.33,2.5-.7,3.74-1.1.69-.21,1.38-.44,2.06-.67q5.21-1.71,10.22-3.85c.91-.38,1.78-.77,2.67-1.18s2-.9,2.93-1.36c2-.95,3.86-1.92,5.75-2.94,2.13-1.15,4.21-2.37,6.26-3.63.69-.42,1.38-.86,2-1.29.9-.58,1.8-1.17,2.68-1.76.67-.45,1.33-.91,2-1.38.5-.34,1-.69,1.5-1.07s1.26-.9,1.88-1.37c.81-.61,1.6-1.23,2.4-1.85s1.67-1.33,2.5-2a.47.47,0,0,0,.15-.13.86.86,0,0,0,.14-.13A133.34,133.34,0,0,0,456.2,400.93Z" transform="translate(-0.86 -0.07)"/><path class="cls-4" d="M327.33,280.14l-65.94,38.07-.32-.19h0l-.41-.23h-.06l-.77-.44-.48-.28-.63-.36-6.55-3.77-2.51-1.46-3.26-1.89-18.72-10.81,5.07-2.93,2.47-1.44,6.4-3.67.22-.15,1.06-.61.79-.52,1-.47,48.95-28.28,16.36,9.4Z" transform="translate(-0.86 -0.07)"/><path class="cls-5" d="M421.76,340.12l-.46.32-.12.08-1.42,1.42-3.22,1.66c-1.06.66-2,1.27-2.84,1.75l-.63.38L404,351l-5.24,3L361.1,375.74l-33.74-19.48,9-5.19,3.11-1.81,28.09-16.21,2.74-1.58,2.62-1.51,3.67-2.12,2.26-1.31,1.08-.62,2-1.17,6.49-3.74,1-.57.47-.27.8-.46,2.62-1.51,2.87,1.66c1.18.72,2.35,1.45,3.5,2.2l.07.06c.91.59,1.82,1.2,2.72,1.82.35.23.69.47,1,.71,1,.69,2,1.42,3,2.15s1.92,1.44,2.86,2.18l.1.07c.44.35.89.7,1.32,1.07s1.08.86,1.62,1.32l1.35,1.15,1.09.94c.62.54,1.24,1.1,1.85,1.65q2.37,2.15,4.63,4.41C421.44,339.78,421.6,339.94,421.76,340.12Z" transform="translate(-0.86 -0.07)"/><path class="cls-2" d="M460.31,433.87A133,133,0,0,1,412.08,536.5a.44.44,0,0,1-.14.13.93.93,0,0,1-.15.13c-.83.68-1.66,1.35-2.5,2s-1.59,1.24-2.4,1.85c-.62.47-1.25.93-1.88,1.37s-1,.74-1.5,1.07-1.32.93-2,1.38c-.87.59-1.77,1.19-2.67,1.76l-2,1.29c-2,1.26-4.13,2.48-6.26,3.62-1.89,1-3.8,2-5.75,2.95l-2.93,1.36c-.89.41-1.77.8-2.67,1.18q-5,2.13-10.22,3.86c-.69.23-1.37.46-2.06.66-1.24.4-2.49.76-3.74,1.11-.85.25-1.72.48-2.56.7l-.51.13c-1,.26-2,.5-3,.73s-2.16.49-3.24.7l-3.16.62h-.11l-1.55.26-1.75.28-2.92.41-1,.13-2.65.31h-.12c-1.1.12-2.21.21-3.32.29s-2,.15-3.05.19h-.57c-.89,0-1.8.08-2.7.1H135V410.24a33,33,0,0,1,15.87-28.19l50.07-28.93,45.45-26.24,3.27-1.88,2.51-1.46,6.55-3.76.63-.37c.18-.11.34-.19.47-.28l.78-.43.06-.05.41-.23h0l100.4-58,.47-.28.1-.06a67.3,67.3,0,0,0,32.33-57.55c0-1.25,0-2.46-.09-3.68-.06-1-.13-2-.23-3a1.51,1.51,0,0,0-.07-.56,7.4,7.4,0,0,0-.12-1c-.12-1-.25-1.94-.42-2.89-.08-.52-.18-1-.28-1.56s-.19-1-.31-1.54-.18-.82-.28-1.23-.12-.52-.19-.79c-.13-.49-.25-1-.38-1.47-.46-1.65-1-3.29-1.54-4.88-.15-.44-.31-.88-.49-1.31s-.43-1.13-.67-1.68-.34-.86-.53-1.26-.24-.57-.38-.85-.36-.79-.55-1.19c-.58-1.22-1.22-2.44-1.88-3.64-.49-.92-1-1.82-1.59-2.72a64.42,64.42,0,0,0-4.58-6.54c-.32-.39-.63-.79-1-1.18s-.65-.78-1-1.16l.17.17-.5-.57-.68-.73c-.34-.39-.7-.77-1.06-1.15s-.75-.79-1.14-1.16c-1.13-1.15-2.32-2.26-3.55-3.3s-2.48-2.1-3.78-3.05c-.86-.66-1.73-1.29-2.64-1.88s-1.84-1.21-2.78-1.77c-1.37-.85-2.8-1.63-4.23-2.37-.48-.26-1-.5-1.45-.72s-1-.48-1.52-.71l-1.47-.64A64.53,64.53,0,0,0,347,138.2l-1.23-.37c-.69-.22-1.39-.41-2.07-.58l-1.52-.36c-1.08-.25-2.18-.48-3.29-.67-.55-.11-1.11-.19-1.68-.27-1.13-.19-2.27-.32-3.44-.44-1.68-.17-3.38-.27-5.1-.32h2l2.91.11a5.42,5.42,0,0,1,.57,0c1,0,2,.11,3.05.19s2.22.18,3.32.3h.12c.88.09,1.77.2,2.65.31a7.4,7.4,0,0,1,1,.12c1,.13,2,.27,2.92.42,1.11.16,2.21.35,3.3.54h.11c1,.2,2.1.4,3.16.62s2.16.46,3.24.71,2,.46,3,.72a1.7,1.7,0,0,1,.51.14c.84.21,1.71.44,2.56.7,1.25.33,2.5.7,3.74,1.1.69.21,1.37.44,2.06.66q5.2,1.72,10.22,3.86l2.67,1.18c1,.44,2,.91,2.93,1.36,2,1,3.86,1.92,5.75,2.94,2.13,1.15,4.21,2.37,6.26,3.64.69.41,1.38.85,2,1.28.9.58,1.8,1.18,2.67,1.77.68.44,1.34.9,2,1.37s1,.69,1.5,1.07,1.26.9,1.88,1.37c.81.61,1.6,1.23,2.4,1.86s1.67,1.32,2.5,2l.15.12a.93.93,0,0,1,.14.14,133.33,133.33,0,0,1,44.12,69.63h0a1.58,1.58,0,0,1-.09.36c-.27,1.07-.57,2.13-.86,3.19s-.61,2.09-.93,3.15c-.26.81-.52,1.62-.79,2.43-.7,2.1-1.46,4.19-2.26,6.26l-.72,1.81c-.27.66-.54,1.32-.83,2-.09.24-.19.48-.31.73-.28.63-.55,1.28-.84,1.91-.48,1.07-1,2.15-1.49,3.2s-.89,1.8-1.34,2.69a.24.24,0,0,0-.06.11q-1.5,2.83-3,5.58c-.19.34-.38.68-.58,1l-1.36,2.27c-.44.69-.88,1.4-1.33,2.1a.83.83,0,0,1-.08.12c-.56.9-1.16,1.79-1.76,2.69s-1.21,1.76-1.83,2.63-1.09,1.52-1.64,2.27l-.24.32c-.57.76-1.14,1.5-1.71,2.24-.14.17-.28.37-.43.54-.46.56-1.35,1.67-1.82,2.26-.69.81-1.38,1.64-2.07,2.43-1.39,1.63-2.82,3.2-4.3,4.75l-.07.07c-.72.74-1.44,1.49-2.17,2.22-1.52,1.51-3,3-4.63,4.41-.61.55-1.23,1.11-1.85,1.65-.36.32-.73.65-1.09.94s-.89.77-1.35,1.15l-1.62,1.32c-.54.43-.88.72-1.33,1.07l-.09.07c-.94.74-1.89,1.47-2.86,2.18s-2,1.46-3,2.15l-1,.72c-.91.61-1.81,1.22-2.73,1.81l-.06.06c-1.15.76-2.32,1.48-3.5,2.2l-5.49,3.18-.8.46-.47.28-1,.54c-1.63.95-3.81,2.22-6.5,3.76l-2,1.17-1.08.62-2.27,1.31-3.56,2.2-2.63,1.51-2.73,1.58L339.42,349.3l-3.12,1.81L310,366.31,207.42,425.5a13,13,0,0,0-6.51,11.27v64.44h66.47v.05h63.33l2.91-.11h.57c1,0,2-.11,3.05-.19s2.22-.18,3.32-.3h.12l2.65-.3,1-.13c1-.14,2-.26,2.92-.41,1.11-.17,2.21-.36,3.3-.54h.11c1-.2,2.1-.4,3.16-.62l3.24-.7c1.08-.24,2-.48,3-.73a1.7,1.7,0,0,0,.51-.14c.84-.21,1.71-.44,2.56-.7,1.25-.33,2.5-.7,3.74-1.1.69-.21,1.37-.44,2.06-.66q5.2-1.72,10.22-3.86c.9-.38,1.78-.77,2.67-1.18s2-.91,2.93-1.36c2-1,3.86-1.92,5.75-2.94,2.13-1.15,4.21-2.36,6.26-3.64.69-.42,1.38-.84,2-1.28.9-.58,1.8-1.17,2.67-1.77.68-.44,1.34-.9,2-1.37s1-.69,1.5-1.06,1.26-.91,1.88-1.38c.81-.61,1.6-1.23,2.4-1.85s1.67-1.32,2.5-2c0-.05.1-.07.15-.12l.14-.14a133.33,133.33,0,0,0,44.12-69.63c.77,3,1.45,6.05,2,9.14.05.25.09.49.13.74.16.92.31,1.84.45,2.77.17,1.09.32,2.2.47,3.32.11.89.22,1.78.31,2.69,0,.21,0,.43.07.66.35,3.36.56,6.76.65,10.18v2.63A1.29,1.29,0,0,1,460.31,433.87Z" transform="translate(-0.86 -0.07)"/><path class="cls-6" d="M456.2,235.48h0a1.81,1.81,0,0,1-.09.37c-.27,1.06-.57,2.11-.87,3.18s-.6,2.09-.93,3.15c-.25.81-.51,1.61-.78,2.42-.67,2.11-1.42,4.2-2.27,6.27-.23.6-.47,1.21-.71,1.81s-.54,1.32-.83,2c-.09.24-.2.49-.31.73-.28.63-.55,1.28-.85,1.91-.47,1.07-1,2.15-1.48,3.2s-.89,1.8-1.34,2.69l-.06.11q-1.44,2.83-3,5.58c-.19.34-.38.68-.58,1l-1.36,2.26c-.44.71-.88,1.41-1.33,2.11l-.08.12c-.56.9-1.16,1.8-1.77,2.69s-1.2,1.76-1.82,2.63-1.09,1.52-1.64,2.27l-.25.32c-.56.75-1.13,1.5-1.7,2.24l-.43.54-1.82,2.25c-.69.83-1.38,1.65-2.07,2.45-1.39,1.62-2.82,3.19-4.3,4.73a.27.27,0,0,1-.07.08c-.71.75-1.44,1.49-2.17,2.22q-2.27,2.26-4.63,4.41c-.61.55-1.23,1.11-1.85,1.65-.36.32-.73.64-1.09.94s-.89.77-1.35,1.15-1.08.89-1.62,1.32-.88.72-1.33,1.07l-.09.07c-.94.74-1.89,1.47-2.86,2.18s-2,1.46-3,2.15l-1,.71c-.9.62-1.81,1.23-2.73,1.82l-.06.06c-1.15.75-2.32,1.48-3.5,2.2l-2.7,1.56L344.83,270l16.63-9.6.47-.28.1-.06a67.31,67.31,0,0,0,32.33-57.56c0-1.24,0-2.45-.09-3.67,0-1-.14-2-.23-3.05a1.49,1.49,0,0,0-.07-.56l-.12-1c-.12-1-.26-1.94-.42-2.89-.08-.52-.17-1-.28-1.56s-.19-1-.31-1.54-.18-.83-.28-1.23-.13-.53-.19-.8c-.12-.48-.25-1-.38-1.45-.46-1.66-1-3.3-1.54-4.89-.15-.44-.31-.88-.49-1.31s-.43-1.13-.67-1.69-.34-.85-.53-1.25-.24-.57-.37-.85-.37-.8-.56-1.19c-.58-1.23-1.21-2.44-1.87-3.64-.5-.92-1-1.82-1.6-2.72a63,63,0,0,0-4.59-6.54l-.95-1.18c-.33-.39-.65-.78-1-1.16l.32.34c-.22-.24-.44-.5-.65-.74l-.68-.73c-.33-.39-.7-.77-1.06-1.15s-.75-.79-1.14-1.16c-1.13-1.16-2.32-2.26-3.55-3.3s-2.48-2.1-3.78-3.05c-.86-.67-1.74-1.29-2.64-1.88s-1.84-1.21-2.78-1.77c-1.38-.85-2.79-1.63-4.23-2.37-.48-.26-1-.5-1.45-.72l-1.51-.71-1.48-.64a61.94,61.94,0,0,0-6.19-2.27l-1.23-.37c-.69-.22-1.39-.41-2.08-.58-.5-.13-1-.25-1.51-.35-1.08-.26-2.18-.49-3.29-.68-.55-.11-1.11-.19-1.67-.27-1.14-.19-2.29-.32-3.45-.44-1.68-.17-3.38-.27-5.1-.32h2l2.9.11h.58c1,0,2,.11,3.06.19s2.21.17,3.32.3h.1c.89.09,1.78.2,2.66.31l1,.12c1,.13,2,.27,2.92.42s2.21.35,3.3.54h.11c1.05.2,2.11.4,3.16.62l3.24.7c1.08.24,2,.47,3,.73a4.42,4.42,0,0,1,.52.14c.85.21,1.71.44,2.56.7,1.26.34,2.5.7,3.74,1.1.69.21,1.38.44,2.06.67q5.2,1.71,10.22,3.86c.91.37,1.78.77,2.67,1.17l2.93,1.36c2,1,3.86,1.92,5.75,3,2.13,1.14,4.21,2.36,6.26,3.63.69.41,1.38.85,2,1.28.9.58,1.8,1.17,2.68,1.77.67.44,1.33.9,2,1.37.5.34,1,.69,1.5,1.07s1.26.9,1.88,1.38c.81.6,1.6,1.22,2.4,1.84s1.67,1.33,2.5,2a.53.53,0,0,1,.15.12.86.86,0,0,1,.14.13A133.38,133.38,0,0,1,456.2,235.48Z" transform="translate(-0.86 -0.07)"/><path class="cls-2" d="M460.31,202.53V206c-.09,3.42-.3,6.82-.65,10.18a2.15,2.15,0,0,1-.07.67c-.09.9-.2,1.79-.31,2.68-.15,1.12-.3,2.23-.47,3.32-.14.93-.29,1.85-.45,2.77a3.58,3.58,0,0,1-.13.74c-.54,3.09-1.22,6.13-2,9.14a133.33,133.33,0,0,0-44.12-69.63.86.86,0,0,0-.14-.13c0-.06-.1-.08-.15-.12-.83-.69-1.66-1.35-2.5-2s-1.59-1.24-2.4-1.84c-.62-.48-1.24-.94-1.88-1.38s-1-.73-1.5-1.07c-.66-.47-1.32-.93-2-1.37-.88-.6-1.78-1.19-2.68-1.77l-2-1.28c-2.05-1.27-4.13-2.49-6.26-3.63-1.89-1-3.8-2-5.75-3l-2.93-1.36c-.89-.4-1.76-.8-2.67-1.17q-5-2.14-10.22-3.86c-.68-.23-1.37-.46-2.06-.67-1.24-.4-2.48-.76-3.74-1.1-.85-.26-1.71-.49-2.56-.7a4.42,4.42,0,0,0-.52-.14c-1-.26-2-.5-3-.73s-2.16-.48-3.24-.7l-3.16-.62h-.11c-1.09-.19-2.2-.38-3.3-.54s-1.93-.29-2.92-.42l-1-.12c-.88-.11-1.77-.22-2.66-.31h-.1c-1.11-.13-2.22-.22-3.32-.3s-2-.15-3.06-.19a5.61,5.61,0,0,0-.58,0l-2.9-.11H267.38v44.32L200.91,141.1l-10.3-5.95L135,103,267.38,26.57V69.21h63.33l2.9.11h.58c1,0,2,.11,3.06.19s2.21.17,3.32.29h.1l2.66.31,1,.13,2.92.41c1.1.17,2.21.36,3.3.54a.21.21,0,0,0,.11,0c1,.2,2.11.4,3.16.62l3.24.7c1.08.24,2,.47,3,.73l.52.13c.85.22,1.71.45,2.56.71,1.26.33,2.5.7,3.74,1.1.69.21,1.38.43,2.06.66q5.21,1.72,10.22,3.86c.91.38,1.78.77,2.67,1.18s2,.9,2.93,1.36c2,1,3.86,1.92,5.75,2.94,2.13,1.15,4.21,2.37,6.26,3.63.69.42,1.38.85,2,1.29.9.58,1.8,1.17,2.68,1.76.67.45,1.33.91,2,1.38.5.34,1,.69,1.5,1.07s1.26.9,1.88,1.37c.81.61,1.6,1.23,2.4,1.85s1.67,1.33,2.5,2l.15.12a.93.93,0,0,1,.14.14A133,133,0,0,1,460.31,202.53Z" transform="translate(-0.86 -0.07)"/><path class="cls-7" d="M207.33,313.6a4.76,4.76,0,0,1,0,8.25L198,327.21l-55.9,32.12a4.75,4.75,0,0,1-7.13-4.12v-75a4.76,4.76,0,0,1,7.13-4.13l51.15,29.38h0Z" transform="translate(-0.86 -0.07)"/></svg>